<svg xmlns="http://www.w3.org/2000/svg" width="1400" height="788" viewBox="0 0 1400 788">
  <defs>
    <pattern id="weave" width="36" height="36" patternUnits="userSpaceOnUse">
      <path d="M0 0H36M0 18H36M0 0V36M18 0V36" fill="none" stroke="#a68c67" stroke-width="1" opacity=".18"/>
      <path d="M0 9H36M9 0V36" fill="none" stroke="#fffaf0" stroke-width="3" opacity=".45"/>
    </pattern>
  </defs>
  <rect width="1400" height="788" fill="#e8ddc9"/>
  <rect width="1400" height="788" fill="url(#weave)"/>
  <rect x="78" y="95" width="1244" height="598" fill="#f4eddf" stroke="#b9a687"/>
  <path d="M1020 170l150 150-150 150-150-150zM1020 212l108 108-108 108-108-108z" fill="none" stroke="#947552" stroke-width="2"/>
  <path d="M1020 245l75 75-75 75-75-75zM1020 284l36 36-36 36-36-36z" fill="none" stroke="#947552" stroke-width="2"/>
  <text x="143" y="220" font-family="Arial,sans-serif" font-size="22" letter-spacing="5" fill="#7b6448">ÖZEL E-TİCARET PLATFORMU</text>
  <text x="137" y="349" font-family="Georgia,serif" font-size="98" fill="#342b23">Pearl of</text>
  <text x="137" y="463" font-family="Georgia,serif" font-size="112" fill="#342b23">Anatolia</text>
  <path d="M143 524h1114" stroke="#b9a687"/>
  <text x="143" y="582" font-family="Arial,sans-serif" font-size="27" fill="#705e49">Katalog · Alışveriş · iyzico · Journal</text>
  <text x="143" y="636" font-family="Arial,sans-serif" font-size="21" letter-spacing="2" fill="#7b6448">PEARLOFANATOLIA.COM.TR</text>
</svg>
